HIERARCHY
ROOT Hips
{
	OFFSET 0.000000 89.005402 0.000000
	CHANNELS 6 Xposition Yposition Zposition Xrotation Yrotation Zrotation
	JOINT Spine
	{
		OFFSET 0.116900 10.681000 0.373400
		CHANNELS 3 Xrotation Yrotation Zrotation
		JOINT Spine1
		{
			OFFSET 0.000000 13.840401 0.053500
			CHANNELS 3 Xrotation Yrotation Zrotation
			JOINT Spine2
			{
				OFFSET 0.000000 14.712700 -0.366200
				CHANNELS 3 Xrotation Yrotation Zrotation
				JOINT Neck
				{
					OFFSET 0.000000 35.415497 -3.314200
					CHANNELS 3 Xrotation Yrotation Zrotation
					JOINT Head
					{
						OFFSET 0.000000 16.899200 1.218300
						CHANNELS 3 Xrotation Yrotation Zrotation
						JOINT HeadTop_End
						{
							OFFSET 0.000000 22.206207 2.192500
							CHANNELS 3 Xrotation Yrotation Zrotation
							End Site
							{
								OFFSET 0.000000 22.314178 0.000000
							}
						}
					}
				}
				JOINT LeftShoulder
				{
					OFFSET 12.896400 26.716293 -4.548400
					CHANNELS 3 Xrotation Yrotation Zrotation
					JOINT LeftArm
					{
						OFFSET 19.027000 -4.857010 -1.718400
						CHANNELS 3 Xrotation Yrotation Zrotation
						JOINT LeftForeArm
						{
							OFFSET 24.179897 0.000000 0.000000
							CHANNELS 3 Xrotation Yrotation Zrotation
							JOINT LeftHand
							{
								OFFSET 27.156403 0.000000 0.000000
								CHANNELS 3 Xrotation Yrotation Zrotation
								JOINT LeftHandIndex1
								{
									OFFSET 16.441200 0.000000 0.000000
									CHANNELS 3 Xrotation Yrotation Zrotation
									JOINT LeftHandIndex2
									{
										OFFSET 4.821899 0.000000 0.000000
										CHANNELS 3 Xrotation Yrotation Zrotation
										JOINT LeftHandIndex3
										{
											OFFSET 6.386497 0.000000 0.000000
											CHANNELS 3 Xrotation Yrotation Zrotation
											JOINT LeftHandIndex4
											{
												OFFSET 5.188988 0.000000 0.000000
												CHANNELS 3 Xrotation Yrotation Zrotation
												End Site
												{
													OFFSET -0.178703 5.185913 0.000177
												}
											}
										}
									}
								}
								JOINT LeftHandThumb1
								{
									OFFSET 6.534897 -5.032593 5.900300
									CHANNELS 3 Xrotation Yrotation Zrotation
									JOINT LeftHandThumb2
									{
										OFFSET 3.818176 -2.204422 2.204423
										CHANNELS 3 Xrotation Yrotation Zrotation
										JOINT LeftHandThumb3
										{
											OFFSET 3.252098 -1.877594 1.877601
											CHANNELS 3 Xrotation Yrotation Zrotation
											JOINT LeftHandThumb4
											{
												OFFSET 5.251778 -3.032120 3.032117
												CHANNELS 3 Xrotation Yrotation Zrotation
												End Site
												{
													OFFSET 0.000023 6.780014 0.000000
												}
											}
										}
									}
								}
							}
						}
					}
				}
				JOINT RightShoulder
				{
					OFFSET -12.896300 26.716293 -4.548400
					CHANNELS 3 Xrotation Yrotation Zrotation
					JOINT RightArm
					{
						OFFSET -19.027000 -4.857010 -1.718400
						CHANNELS 3 Xrotation Yrotation Zrotation
						JOINT RightForeArm
						{
							OFFSET -24.179897 0.000000 0.000000
							CHANNELS 3 Xrotation Yrotation Zrotation
							JOINT RightHand
							{
								OFFSET -27.156403 0.000000 0.000000
								CHANNELS 3 Xrotation Yrotation Zrotation
								JOINT RightHandThumb1
								{
									OFFSET -6.591202 -4.852203 5.988100
									CHANNELS 3 Xrotation Yrotation Zrotation
									JOINT RightHandThumb2
									{
										OFFSET -3.818176 -2.204422 2.204423
										CHANNELS 3 Xrotation Yrotation Zrotation
										JOINT RightHandThumb3
										{
											OFFSET -3.252098 -1.877594 1.877601
											CHANNELS 3 Xrotation Yrotation Zrotation
											JOINT RightHandThumb4
											{
												OFFSET -5.251778 -3.032120 3.032117
												CHANNELS 3 Xrotation Yrotation Zrotation
												End Site
												{
													OFFSET -0.000023 6.780014 0.000000
												}
											}
										}
									}
								}
								JOINT RightHandIndex1
								{
									OFFSET -16.029404 0.000000 0.000000
									CHANNELS 3 Xrotation Yrotation Zrotation
									JOINT RightHandIndex2
									{
										OFFSET -5.213303 0.000000 0.000000
										CHANNELS 3 Xrotation Yrotation Zrotation
										JOINT RightHandIndex3
										{
											OFFSET -6.386528 0.000000 0.000000
											CHANNELS 3 Xrotation Yrotation Zrotation
											JOINT RightHandIndex4
											{
												OFFSET -5.189026 0.000000 0.000000
												CHANNELS 3 Xrotation Yrotation Zrotation
												End Site
												{
													OFFSET 0.236702 5.183624 0.001972
												}
											}
										}
									}
								}
							}
						}
					}
				}
			}
		}
	}
	JOINT LeftUpLeg
	{
		OFFSET 14.073000 -7.904099 -1.463000
		CHANNELS 3 Xrotation Yrotation Zrotation
		JOINT LeftLeg
		{
			OFFSET -0.109806 -34.073280 4.093200
			CHANNELS 3 Xrotation Yrotation Zrotation
			JOINT LeftFoot
			{
				OFFSET 0.109806 -29.899420 -6.319000
				CHANNELS 3 Xrotation Yrotation Zrotation
				JOINT LeftToeBase
				{
					OFFSET 1.551100 -14.988700 20.535801
					CHANNELS 3 Xrotation Yrotation Zrotation
					JOINT LeftToe_End
					{
						OFFSET 0.221200 0.570800 13.248301
						CHANNELS 3 Xrotation Yrotation Zrotation
						End Site
						{
							OFFSET 0.000000 13.262435 0.000000
						}
					}
				}
			}
		}
	}
	JOINT RightUpLeg
	{
		OFFSET -13.839300 -7.904099 -1.463000
		CHANNELS 3 Xrotation Yrotation Zrotation
		JOINT RightLeg
		{
			OFFSET 0.109694 -34.073219 4.093300
			CHANNELS 3 Xrotation Yrotation Zrotation
			JOINT RightFoot
			{
				OFFSET -0.109694 -29.899384 -6.319200
				CHANNELS 3 Xrotation Yrotation Zrotation
				JOINT RightToeBase
				{
					OFFSET -1.551100 -14.988700 20.535801
					CHANNELS 3 Xrotation Yrotation Zrotation
					JOINT RightToe_End
					{
						OFFSET -0.221200 0.570900 13.248299
						CHANNELS 3 Xrotation Yrotation Zrotation
						End Site
						{
							OFFSET 0.000000 13.262440 0.000000
						}
					}
				}
			}
		}
	}
}
MOTION
Frames: 9
Frame Time: 0.033333
0.081886 84.539337 -5.689720 18.010755 3.983843 0.035560 27.074040 3.149848 0.046373 3.234215 0.536405 -2.077719 3.249780 0.431635 -2.077383 13.183229 -2.144665 9.870585 -45.643825 -12.538874 -1.993398 0.000000 -0.000001 -0.000000 1.879225 -9.503544 13.471799 11.641153 0.259347 -90.638038 0.000008 -40.008588 0.000023 -0.686841 -15.460685 6.278488 -0.950398 -5.566715 -8.949652 0.888035 3.387449 -29.372040 0.253414 1.854388 -15.562057 -0.000001 -0.000000 -0.000002 -6.964021 11.596270 -2.726534 5.636883 14.451497 6.617573 -2.522814 13.690247 2.121406 -0.000000 0.000000 -0.000001 1.335458 6.398799 -13.941032 -78.851201 -1.360709 6.719449 0.000034 123.674276 -0.000030 -19.128081 11.921975 -16.206195 3.845315 -14.417901 11.583648 1.416977 -9.556205 -0.410502 1.367280 -12.246703 -3.521054 -0.000001 0.000000 0.000001 0.059958 -1.155759 19.426474 0.320389 -2.090247 17.426871 0.085578 -1.089769 8.980048 -0.000000 0.000001 0.000000 -34.494262 -0.106138 1.019816 21.549501 -2.569653 0.810419 -5.192244 -1.482093 -2.853741 -0.109305 -0.000000 0.000000 -0.000000 -0.000000 0.000000 -33.328301 -0.406631 -6.857847 25.185938 -8.838247 0.668909 -7.781902 -10.053460 6.107712 -0.013405 0.000010 0.000002 0.000000 0.000000 0.000000 
0.072804 84.556328 -5.681726 17.999507 3.516274 0.310174 27.041504 3.088065 0.183304 3.259760 0.524477 -2.081860 3.275071 0.418989 -2.081291 13.182842 -2.200149 9.914721 -45.643794 -12.805888 -2.097602 -0.000000 -0.000001 -0.000000 1.901497 -9.598985 13.499373 11.598136 0.233283 -90.696156 -0.000003 -39.880337 -0.000011 -0.739331 -15.626916 6.268044 -0.951686 -5.553540 -8.966059 0.890291 3.391442 -29.410129 0.253932 1.856243 -15.578085 -0.000000 0.000001 -0.000004 -6.976817 11.603989 -2.709277 5.631014 14.477829 6.633926 -2.535708 13.691626 2.136985 -0.000001 0.000001 -0.000002 1.307165 6.258075 -13.925445 -78.470773 -1.416616 6.708082 0.000027 123.897309 -0.000032 -18.460436 11.543175 -16.993485 3.684461 -14.413555 11.607906 1.399571 -9.570271 -0.410951 1.352412 -12.250160 -3.539085 0.000002 -0.000002 -0.000000 0.060890 -1.158148 19.360171 0.321408 -2.093487 17.454760 0.085408 -1.088706 8.971208 0.000000 0.000000 -0.000000 -34.258149 -0.095804 0.991483 21.372471 -2.334354 0.693516 -5.231943 -1.215882 -2.842394 -0.109895 -0.000000 0.000000 -0.000000 -0.000000 0.000000 -33.498786 -0.414839 -6.921957 25.189120 -8.846573 0.504217 -7.677216 -9.500744 6.174834 -0.013031 0.000003 0.000002 -0.000000 0.000000 0.000000 
0.046427 84.563995 -5.675886 17.959945 3.159522 0.565948 27.023450 3.035267 0.259436 3.289468 0.514959 -2.079760 3.304478 0.409217 -2.079195 13.169930 -2.251933 9.985878 -45.657427 -13.042155 -2.204724 -0.000002 0.000000 -0.000000 1.920499 -9.646157 13.634414 11.471536 0.168380 -90.864841 0.000023 -39.680448 -0.000002 -0.719571 -15.831878 6.313046 -0.952023 -5.545576 -8.961811 0.891967 3.394409 -29.438460 0.254141 1.856996 -15.584583 -0.000000 0.000000 0.000003 -6.983658 11.605516 -2.701418 5.628096 14.493607 6.645999 -2.545032 13.692817 2.147907 -0.000000 -0.000002 0.000000 1.285865 6.150601 -13.925864 -78.353997 -1.594203 6.610664 0.000006 124.096341 -0.000007 -18.243801 11.341398 -17.246530 3.558411 -14.425416 11.624126 1.385282 -9.582072 -0.409564 1.340053 -12.253053 -3.554601 -0.000000 0.000002 -0.000000 0.065762 -1.171773 19.315589 0.322270 -2.096228 17.478338 0.085393 -1.088595 8.970342 0.000000 0.000001 -0.000000 -34.031025 -0.083346 0.953882 21.218381 -2.132688 0.580913 -5.258835 -1.020992 -2.838892 -0.110743 0.000001 -0.000001 0.000000 0.000000 0.000000 -33.643575 -0.439350 -6.995131 25.274736 -8.842515 0.355753 -7.644913 -9.052903 6.227091 -0.012502 0.000003 -0.000000 -0.000000 -0.000002 0.000000 
0.001538 84.562141 -5.673939 17.892939 2.874649 0.775698 27.044721 3.008381 0.298508 3.296853 0.509858 -2.065464 3.311657 0.404420 -2.065118 13.179980 -2.289398 10.050490 -45.661522 -13.247475 -2.266487 -0.000001 -0.000000 0.000000 1.957717 -9.776787 13.783387 11.420508 0.194642 -91.049885 -0.000013 -39.528593 0.000002 -0.688702 -15.992046 6.365981 -0.953768 -5.551690 -8.964781 0.891457 3.393507 -29.429827 0.254208 1.857229 -15.586589 -0.000001 0.000002 0.000004 -6.984237 11.603683 -2.698307 5.627101 14.501759 6.653929 -2.547218 13.693501 2.149782 -0.000000 -0.000000 0.000001 1.288318 6.171224 -13.797982 -78.379638 -1.694001 6.285551 0.000024 124.184000 -0.000030 -18.376361 11.409251 -17.239397 3.507700 -14.446962 11.626100 1.370387 -9.594135 -0.408474 1.339930 -12.253120 -3.555240 -0.000000 -0.000002 0.000002 0.071446 -1.188086 19.281072 0.323131 -2.098956 17.501851 0.085490 -1.089216 8.975426 -0.000000 0.000001 -0.000000 -33.832997 -0.050781 0.955271 21.136743 -1.968472 0.473117 -5.303551 -0.897729 -2.846088 -0.111554 0.000001 0.000001 -0.000000 -0.000000 -0.000000 -33.752876 -0.466487 -7.009205 25.395989 -8.688743 0.211091 -7.658633 -8.850861 6.228622 -0.012026 0.000005 0.000000 -0.000000 0.000000 0.000000 
-0.053289 84.551704 -5.676390 17.821579 2.617781 0.931223 27.078630 3.036642 0.328155 3.302844 0.512159 -2.045199 3.317648 0.407287 -2.045006 13.190408 -2.318778 10.104331 -45.643832 -13.435406 -2.287826 -0.000001 0.000000 -0.000000 2.016852 -10.003590 13.938202 11.443579 0.305113 -91.210517 0.000009 -39.433421 0.000012 -0.690122 -16.087507 6.351474 -0.953433 -5.582332 -8.941048 0.888637 3.388512 -29.382203 0.254159 1.857052 -15.585071 -0.000000 0.000001 0.000001 -6.976911 11.589918 -2.709727 5.628788 14.499583 6.656684 -2.545427 13.693810 2.146785 0.000000 -0.000002 -0.000001 1.268167 6.114758 -13.530355 -78.356285 -1.571289 6.011007 0.000007 124.135396 -0.000006 -18.455193 11.687241 -17.247122 3.527409 -14.455344 11.626549 1.354813 -9.606481 -0.407742 1.350695 -12.250613 -3.542223 -0.000001 0.000002 0.000001 0.075856 -1.201429 19.236972 0.324299 -2.102652 17.533683 0.085575 -1.089741 8.979759 0.000000 0.000001 -0.000000 -33.688399 -0.006503 1.010045 21.145801 -1.807711 0.376962 -5.382133 -0.838371 -2.869510 -0.112082 -0.000000 0.000000 0.000000 -0.000000 0.000000 -33.843389 -0.479633 -6.963771 25.519048 -8.540231 0.073977 -7.681609 -8.715654 6.216233 -0.011603 0.000010 -0.000002 -0.000000 0.000000 -0.000000 
-0.103916 84.538239 -5.683056 17.779153 2.370643 1.055113 27.074264 3.082940 0.343739 3.327352 0.516213 -2.017485 3.342211 0.412504 -2.017279 13.170739 -2.347485 10.142826 -45.594252 -13.599773 -2.294152 -0.000001 0.000000 -0.000000 2.062257 -10.179857 14.039412 11.456625 0.385474 -91.301871 -0.000004 -39.352080 -0.000001 -0.706264 -16.138767 6.298305 -0.951016 -5.632798 -8.891888 0.885861 3.383581 -29.335174 0.253960 1.856340 -15.578937 -0.000000 0.000001 0.000002 -6.963194 11.564431 -2.736718 5.633525 14.487118 6.655984 -2.545450 13.694135 2.146336 -0.000000 -0.000003 -0.000001 1.186166 5.744217 -13.366048 -78.180046 -1.415999 6.190078 0.000026 124.031987 -0.000029 -18.278602 11.968913 -17.295711 3.578857 -14.439525 11.638050 1.340919 -9.617600 -0.405995 1.361785 -12.247989 -3.528422 0.000001 0.000000 -0.000001 0.079869 -1.213954 19.195121 0.325693 -2.107062 17.571693 0.085576 -1.089761 8.979911 -0.000000 0.000001 -0.000000 -33.599360 0.025782 1.081085 21.188352 -1.622399 0.298117 -5.466969 -0.814684 -2.906276 -0.112414 0.000000 0.000001 -0.000000 -0.000000 -0.000000 -33.948533 -0.476287 -6.892693 25.619136 -8.378269 -0.049385 -7.689657 -8.632723 6.193376 -0.011178 -0.000005 -0.000001 -0.000000 -0.000002 -0.000000 
-0.139044 84.529266 -5.691723 17.775521 2.126024 1.172701 27.028054 3.077716 0.339800 3.349082 0.513230 -1.983207 3.363856 0.411313 -1.982996 13.152630 -2.373257 10.151809 -45.526626 -13.722543 -2.312434 -0.000000 -0.000000 0.000000 2.068336 -10.222181 13.996849 11.454349 0.382618 -91.278819 -0.000022 -39.246663 0.000003 -0.672547 -16.209294 6.347188 -0.951021 -5.678469 -8.868005 0.884753 3.381612 -29.316374 0.253969 1.856369 -15.579129 -0.000001 -0.000001 0.000001 -6.949145 11.544364 -2.760049 5.639009 14.474474 6.658695 -2.548830 13.694597 2.150331 -0.000001 0.000003 -0.000000 1.077483 5.214997 -13.414477 -77.929016 -1.400341 6.741004 -0.000003 123.968480 -0.000009 -17.948578 12.117254 -17.354872 3.620898 -14.418854 11.654218 1.330934 -9.626054 -0.401959 1.365226 -12.247167 -3.523918 0.000001 0.000004 0.000001 0.084382 -1.227928 19.162381 0.327057 -2.111360 17.608801 0.085510 -1.089330 8.976410 -0.000000 -0.000001 -0.000000 -33.539849 0.031289 1.130489 21.200557 -1.405497 0.236059 -5.528984 -0.795243 -2.946781 -0.112749 -0.000000 -0.000000 0.000000 0.000000 0.000000 -34.075339 -0.467821 -6.833123 25.676855 -8.189947 -0.159286 -7.668276 -8.579101 6.166890 -0.010832 -0.000002 -0.000001 -0.000000 -0.000002 -0.000000 
-0.155719 84.527023 -5.699596 17.791555 1.863524 1.292421 26.969656 3.034207 0.352661 3.358045 0.505749 -1.964201 3.372650 0.404853 -1.964009 13.164174 -2.394133 10.136779 -45.464765 -13.824045 -2.339487 -0.000002 -0.000001 0.000000 2.066135 -10.252664 13.874524 11.461991 0.366897 -91.189480 -0.000011 -39.087919 -0.000008 -0.544840 -16.301616 6.538631 -0.952139 -5.686164 -8.875123 0.884511 3.381183 -29.312259 0.254251 1.857382 -15.587863 0.000001 -0.000000 -0.000001 -6.939918 11.541359 -2.764578 5.642258 14.472462 6.669509 -2.552263 13.695124 2.154309 -0.000000 0.000000 -0.000002 1.006337 4.872118 -13.477609 -77.735366 -1.421386 7.159412 0.000001 123.954683 -0.000005 -17.619909 12.161804 -17.438212 3.634112 -14.417028 11.662780 1.324722 -9.632015 -0.395754 1.360759 -12.248195 -3.529195 -0.000003 -0.000001 -0.000001 0.089074 -1.242415 19.125015 0.328466 -2.115792 17.646963 0.085418 -1.088750 8.971668 0.000000 -0.000002 -0.000000 -33.479699 0.034477 1.148112 21.183413 -1.408866 0.159902 -5.577816 -0.527517 -2.919798 -0.113122 0.000000 -0.000001 0.000000 0.000000 0.000000 -34.204754 -0.458549 -6.787287 25.686656 -7.973182 -0.261181 -7.614328 -8.531654 6.141309 -0.010726 0.000009 -0.000000 0.000000 -0.000003 -0.000000 
-0.158307 84.524536 -5.706556 17.807898 1.565784 1.418179 26.919942 3.016435 0.404102 3.368830 0.502158 -1.969468 3.383379 0.400855 -1.969211 13.181987 -2.406733 10.121458 -45.450729 -13.906980 -2.349381 -0.000001 -0.000000 0.000000 2.090376 -10.385928 13.814939 11.474207 0.415966 -91.129805 -0.000000 -38.907671 0.000008 -0.395793 -16.288577 6.677738 -0.951238 -5.675080 -8.876419 0.885252 3.382503 -29.324826 0.254400 1.857908 -15.592504 -0.000000 0.000000 -0.000002 -6.934414 11.545006 -2.760086 5.642995 14.479407 6.684509 -2.552567 13.695488 2.154171 -0.000000 0.000002 -0.000000 0.993763 4.811015 -13.406019 -77.658575 -1.362994 7.172873 0.000026 123.949082 -0.000032 -17.373423 12.213472 -17.557211 3.631244 -14.429229 11.668129 1.320470 -9.636727 -0.388423 1.351468 -12.250362 -3.540509 -0.000002 0.000001 0.000002 0.092840 -1.253992 19.089469 0.329770 -2.119886 17.682335 0.085350 -1.088333 8.968059 -0.000000 -0.000000 0.000000 -33.415679 0.058457 1.162226 21.181277 -1.408964 0.084198 -5.644153 -0.245265 -2.879083 -0.113421 0.000000 0.000001 -0.000000 -0.000000 -0.000000 -34.337830 -0.444385 -6.745598 25.685215 -7.731071 -0.361886 -7.545640 -8.476558 6.119720 -0.010755 0.000003 0.000003 0.000000 0.000000 -0.000000 
